<svg width="251" height="67" viewBox="0 0 251 67" fill="none" xmlns="http://www.w3.org/2000/svg">
<path d="M13.758 31.8713L23.5225 38.8003L22.1549 41.0478L32.1062 48.0025L39.6427 47.1891L42.237 49.0021L50.8547 35.9212L48.2604 34.1081L45.3743 27.8627L35.3456 20.8539L33.9478 22.9756L24.136 16.1184L13.758 31.8713Z" stroke="white" stroke-width="1.2"/>
<path d="M22.1223 41.146L32.469 25.4406M35.7024 20.5326L32.469 25.4406M14.8723 28.9116L25.3557 36.238M22.9387 18.7801L32.469 25.4406" stroke="white"/>
<path d="M21.8839 30.9447L23.1772 28.9815M25.1172 26.0367L26.4105 24.0736M32.6736 39.9188L38.4936 31.0845M35.5327 41.9169L41.3527 33.0826M39.9576 47.8763L49.0109 34.1341M44.3993 46.68L51.4279 51.592L56.6012 43.7393L49.5726 38.8272" stroke="white" stroke-width="1.4"/>
<path d="M55.4546 45.3829C61.8648 51.9853 77.1579 59.0899 92.5425 43.2443C111.773 23.4374 128.257 36.1704 135.125 43.2443C141.993 50.3183 157.103 58.807 172.213 43.2443C187.323 27.6817 202.433 36.1704 212.048 43.2443C219.952 49.0591 236.773 58.116 249.136 43.9682" stroke="white" stroke-width="0.7"/>
<path d="M53.2874 49.3523C59.5632 56.1059 78.8543 63.6973 93.9161 47.4887C113.147 26.7938 130.267 44.192 133.751 47.4887C141.993 55.2864 159.147 62.3608 173.586 47.4887C188.696 31.9261 200.5 40.9393 210.674 47.4887C221.663 54.5626 238.406 61.2697 250.51 46.7977" stroke="white"/>
</svg>
