<svg width="119" height="56" viewBox="0 0 119 56" fill="none" xmlns="http://www.w3.org/2000/svg">
<rect x="33.5" y="1.5" width="84" height="45" rx="1.5" stroke="white" stroke-width="3"/>
<path d="M82 1.5L73 9L80 14.5M80 14.5L73 19L80 21.5L64.5 32M80 14.5L84.5 13L86.5 17.5H90L91.5 21.5L95 20.5" stroke="white" stroke-width="1.5" stroke-linecap="round" stroke-linejoin="round"/>
<path d="M71.9908 51.0625L72.8165 48H78.1835L79.0092 51.0625H93.8716L98 55H53L57.9541 51.0625H71.9908Z" fill="white" stroke="white" stroke-width="2" stroke-linejoin="round"/>
<path d="M5.94243 24.34H8.05443V36H5.94243V24.34ZM6.99843 22.096C6.58776 22.096 6.2431 21.964 5.96443 21.7C5.70043 21.436 5.56843 21.1133 5.56843 20.732C5.56843 20.3507 5.70043 20.028 5.96443 19.764C6.2431 19.4853 6.58776 19.346 6.99843 19.346C7.4091 19.346 7.74643 19.478 8.01043 19.742C8.2891 19.9913 8.42843 20.3067 8.42843 20.688C8.42843 21.084 8.2891 21.4213 8.01043 21.7C7.74643 21.964 7.4091 22.096 6.99843 22.096ZM18.313 24.23C19.7943 24.23 20.9676 24.6627 21.833 25.528C22.713 26.3787 23.153 27.6327 23.153 29.29V36H21.041V29.532C21.041 28.4027 20.7696 27.552 20.227 26.98C19.6843 26.408 18.907 26.122 17.895 26.122C16.751 26.122 15.849 26.4593 15.189 27.134C14.529 27.794 14.199 28.7473 14.199 29.994V36H12.087V24.34H14.111V26.1C14.5363 25.4987 15.1083 25.0367 15.827 24.714C16.5603 24.3913 17.389 24.23 18.313 24.23Z" fill="white"/>
</svg>
