<svg width="119" height="56" viewBox="0 0 119 56" fill="none" xmlns="http://www.w3.org/2000/svg">
<rect x="33.5" y="1.5" width="84" height="45" rx="1.5" stroke="white" stroke-width="3"/>
<path d="M71.9908 51.0625L72.8165 48H78.1835L79.0092 51.0625H93.8716L98 55H53L57.9541 51.0625H71.9908Z" fill="white" stroke="white" stroke-width="2" stroke-linejoin="round"/>
<path d="M52.0764 17.12H44.6524V13.6H63.6604V17.12H56.2364V36H52.0764V17.12ZM66.6321 18.912H70.6321V36H66.6321V18.912ZM68.6481 16.096C67.9228 16.096 67.3148 15.872 66.8241 15.424C66.3335 14.9547 66.0881 14.3787 66.0881 13.696C66.0881 13.0133 66.3335 12.448 66.8241 12C67.3148 11.5307 67.9228 11.296 68.6481 11.296C69.3735 11.296 69.9815 11.52 70.4721 11.968C70.9628 12.3947 71.2081 12.9387 71.2081 13.6C71.2081 14.304 70.9628 14.9013 70.4721 15.392C70.0028 15.8613 69.3948 16.096 68.6481 16.096ZM97.0736 13.6L87.3136 36H83.2176L73.4256 13.6H77.9376L85.3936 30.88L92.9136 13.6H97.0736ZM99.8496 18.912H103.85V36H99.8496V18.912ZM101.866 16.096C101.14 16.096 100.532 15.872 100.042 15.424C99.551 14.9547 99.3056 14.3787 99.3056 13.696C99.3056 13.0133 99.551 12.448 100.042 12C100.532 11.5307 101.14 11.296 101.866 11.296C102.591 11.296 103.199 11.52 103.69 11.968C104.18 12.3947 104.426 12.9387 104.426 13.6C104.426 14.304 104.18 14.9013 103.69 15.392C103.22 15.8613 102.612 16.096 101.866 16.096Z" fill="white"/>
<path d="M5.94243 24.34H8.05443V36H5.94243V24.34ZM6.99843 22.096C6.58776 22.096 6.2431 21.964 5.96443 21.7C5.70043 21.436 5.56843 21.1133 5.56843 20.732C5.56843 20.3507 5.70043 20.028 5.96443 19.764C6.2431 19.4853 6.58776 19.346 6.99843 19.346C7.4091 19.346 7.74643 19.478 8.01043 19.742C8.2891 19.9913 8.42843 20.3067 8.42843 20.688C8.42843 21.084 8.2891 21.4213 8.01043 21.7C7.74643 21.964 7.4091 22.096 6.99843 22.096ZM18.313 24.23C19.7943 24.23 20.9676 24.6627 21.833 25.528C22.713 26.3787 23.153 27.6327 23.153 29.29V36H21.041V29.532C21.041 28.4027 20.7696 27.552 20.227 26.98C19.6843 26.408 18.907 26.122 17.895 26.122C16.751 26.122 15.849 26.4593 15.189 27.134C14.529 27.794 14.199 28.7473 14.199 29.994V36H12.087V24.34H14.111V26.1C14.5363 25.4987 15.1083 25.0367 15.827 24.714C16.5603 24.3913 17.389 24.23 18.313 24.23Z" fill="white"/>
</svg>
