<svg width="20" height="20" viewBox="0 0 20 20" fill="none" xmlns="http://www.w3.org/2000/svg">
<path fill-rule="evenodd" clip-rule="evenodd" d="M12.4562 0.842996C12.4563 0.843067 12.4562 0.842924 12.4562 0.842996L18.4556 5.50947C19.4308 6.26727 20 7.43293 20 8.66711V16.0001C20 18.2094 18.2093 20.0001 16 20.0001H4C1.79072 20.0001 0 18.2094 0 16.0001V8.66711C0 7.4331 0.569014 6.26759 1.54403 5.50978C1.54417 5.50968 1.5439 5.50989 1.54403 5.50978L7.54403 0.842782C8.98886 -0.280829 11.0119 -0.281097 12.4562 0.842996ZM8.77189 2.4215C8.77186 2.42152 8.77192 2.42148 8.77189 2.4215L2.77197 7.08844C2.28523 7.46665 2 8.04929 2 8.66711V16.0001C2 17.1048 2.89528 18.0001 4 18.0001H16C17.1047 18.0001 18 17.1048 18 16.0001V8.66711C18 8.04929 17.7152 7.46696 17.2284 7.08876L11.228 2.42144C10.5065 1.85977 9.49496 1.85925 8.77189 2.4215ZM5.29321 11.5307C5.68391 11.1403 6.31708 11.1406 6.70743 11.5313C8.52465 13.3502 11.4732 13.3507 13.2929 11.531C13.6834 11.1405 14.3166 11.1405 14.7071 11.531C15.0976 11.9215 15.0976 12.5547 14.7071 12.9452C12.1068 15.5456 7.89135 15.546 5.29257 12.9449C4.90223 12.5542 4.90251 11.921 5.29321 11.5307Z" fill="white"/>
</svg>
