<svg width="200" height="91" viewBox="0 0 200 91" fill="none" xmlns="http://www.w3.org/2000/svg">
<path d="M0 10.1562H14.034V87.2396L0 90.1042V10.1562Z" fill="#DB0000"/>
<path d="M21.993 10.1562H39.5993L53.2506 53.8021H53.5058V10.1562H66.0088V83.0729L51.592 83.724L34.7512 29.8438H34.496V84.7656L21.993 86.4583V10.1562Z" fill="#DB0000"/>
<path d="M84.8601 10.4167H70.1881V0H113.566V10.4167H98.8941V82.2917L84.8601 82.5521V10.4167Z" fill="#DB0000"/>
<path d="M117.809 10.1562H131.843V83.0729L117.809 82.8125V10.1562Z" fill="#DB0000"/>
<path d="M136.102 0H150.264L159.45 59.9479L159.705 59.6875L168.891 0H181.777L168.253 85.5469L149.303 83.724L136.102 0Z" fill="#DB0000"/>
<path d="M185.966 10.1562H200V90.1042L185.966 87.2396V10.1562Z" fill="#DB0000"/>
</svg>
