<svg width="17" height="14" viewBox="0 0 17 14" fill="none" xmlns="http://www.w3.org/2000/svg">
<path fill-rule="evenodd" clip-rule="evenodd" d="M15.9142 2.50008C16.3048 2.10955 16.3048 1.47639 15.9142 1.08586C15.5237 0.695338 14.8905 0.695338 14.5 1.08586L9.29291 6.29297C8.90238 6.68349 8.90238 7.31666 9.29291 7.70718L14.5858 13.0001C14.9763 13.3906 15.6095 13.3906 16 13.0001C16.3906 12.6096 16.3906 11.9764 16 11.5859L11.4142 7.00008L15.9142 2.50008ZM1 1.00008C0.447715 1.00008 0 1.44779 0 2.00008C0 2.55236 0.447715 3.00008 1 3.00008H9C9.55229 3.00008 10 2.55236 10 2.00008C10 1.44779 9.55229 1.00008 9 1.00008H1ZM1 6.00008C0.447715 6.00008 0 6.44779 0 7.00008C0 7.55236 0.447715 8.00008 1 8.00008H6C6.55228 8.00008 7 7.55236 7 7.00008C7 6.44779 6.55228 6.00008 6 6.00008H1ZM1.00001 11.0001C0.447728 11.0001 1.30534e-05 11.4478 1.30534e-05 12.0001C1.30534e-05 12.5524 0.447728 13.0001 1.00001 13.0001H9C9.55229 13.0001 10 12.5524 10 12.0001C10 11.4478 9.55229 11.0001 9 11.0001H1.00001Z" fill="white"/>
</svg>
